<?xml version="1.0" encoding="UTF-8" standalone="no"?>
<svg
   xmlns:dc="http://purl.org/dc/elements/1.1/"
   xmlns:cc="http://creativecommons.org/ns#"
   xmlns:rdf="http://www.w3.org/1999/02/22-rdf-syntax-ns#"
   xmlns:svg="http://www.w3.org/2000/svg"
   xmlns="http://www.w3.org/2000/svg"
   xmlns:sodipodi="http://sodipodi.sourceforge.net/DTD/sodipodi-0.dtd"
   xmlns:inkscape="http://www.inkscape.org/namespaces/inkscape"
   style="enable-background:new 0 0 499.997 499.992;"
   version="1.1"
   viewBox="0 0 499.997 499.992"
   xml:space="preserve"
   id="svg4785"
   sodipodi:docname="import.svg"
   inkscape:version="0.92.1 r15371"><metadata
     id="metadata4791"><rdf:RDF><cc:Work
         rdf:about=""><dc:format>image/svg+xml</dc:format><dc:type
           rdf:resource="http://purl.org/dc/dcmitype/StillImage" /></cc:Work></rdf:RDF></metadata><defs
     id="defs4789" /><sodipodi:namedview
     pagecolor="#ffffff"
     bordercolor="#666666"
     borderopacity="1"
     objecttolerance="10"
     gridtolerance="10"
     guidetolerance="10"
     inkscape:pageopacity="0"
     inkscape:pageshadow="2"
     inkscape:window-width="1920"
     inkscape:window-height="1015"
     id="namedview4787"
     showgrid="false"
     inkscape:zoom="0.9440151"
     inkscape:cx="349.06259"
     inkscape:cy="276.23187"
     inkscape:window-x="0"
     inkscape:window-y="0"
     inkscape:window-maximized="1"
     inkscape:current-layer="g5538" /><g
     id="gsm-sim-card"><g
       id="g4781"><g
         id="g5390"
         transform="matrix(2.0160662,0,0,2.0160662,-218.33447,-182.9362)"><g
           id="g5417"
           transform="matrix(0.81592934,0,0,0.81592934,-0.56146295,65.6454)"><path
             inkscape:connector-curvature="0"
             id="path4764-6"
             style="fill:#f2f2f2;stroke-width:0.92434019"
             d="M 329.07567,176.32239 247.51421,97.897923 C 244.91827,95.498419 240.12258,93.5115 236.85156,93.5115 h -76.60564 c -8.16448,0 -14.86161,8.05512 -14.86161,17.8995 v 198.77592 c 0,9.84539 6.69713,17.8995 14.86161,17.8995 h 158.66606 c 8.17293,0 14.87005,-8.05512 14.87005,-17.8995 V 187.84956 c -8.4e-4,-3.92416 -2.12731,-9.11651 -4.70636,-11.52717 z" /><g
             id="g5382"
             transform="translate(12.356225,-40.25084)"><path
               d="m 312.27396,218.28583 -77.50995,-74.52878 c -2.46698,-2.28031 -7.02445,-4.16853 -10.13299,-4.16853 h -72.8003 c -7.75892,0 -14.12337,7.65499 -14.12337,17.01035 v 188.90186 c 0,9.35632 6.36445,17.01035 14.12337,17.01035 h 150.78443 c 7.76694,0 14.13139,-7.65499 14.13139,-17.01035 V 229.24039 c -8e-4,-3.72923 -2.02164,-8.66365 -4.47258,-10.95456 z"
               style="fill:#ffffff;fill-opacity:1;stroke-width:0.87842417"
               id="path4764"
               inkscape:connector-curvature="0" /><g
               transform="matrix(1.2587104,0,0,1.2587104,-139.64277,-75.268509)"
               id="g5346"><path
                 inkscape:connector-curvature="0"
                 id="path4776"
                 style="fill:#ffd313;fill-opacity:1"
                 d="m 330.94235,333.00908 c 0,3.89 -3.177,7.063 -7.053,7.063 h -88.252 c -3.871,0 -7.058,-3.172 -7.058,-7.063 v -88.229 c 0,-3.89 3.187,-7.072 7.058,-7.072 h 88.252 c 3.876,0 7.053,3.182 7.053,7.072 z" /><path
                 inkscape:connector-curvature="0"
                 id="path4778"
                 style="fill:#faa10b;fill-opacity:1"
                 d="m 330.94235,292.42608 v -7.072 h -15.169 v -21.916 h -44.536 v -25.729 h -7.063 v 13.825 h -35.596 v 7.072 h 35.596 v 31.094 h -19.122 v 50.362 h 7.058 l -0.009,-43.319 h 12.074 v 19.2 h 46.7 v 24.128 h 7.058 v -24.128 h 13.01 v -7.063 h -31.323 v -16.464 l 9.11,0.009 v 0 h 22.212 z m -38.385,-7.072 v 23.527 h -21.32 v -16.444 -3.532 -18.395 h 37.493 v 14.844 z" /></g></g></g><g
           id="g5538"
           transform="matrix(4.0207865,0,0,4.0207865,200.19305,141.53363)"><g
             id="Layer_1-7" /><g
             id="curved_x5F_arrow"
             transform="matrix(-1.2052054,0,0,1.1524586,30.056133,-11.23838)"><path
               id="path5524"
               style="fill:#4e4e50"
               d="M 28,14 C 28,6.27 21.73,0 14,0 6.27,0 0,6.27 0,14 0,8.477 4.477,4 10,4 15.523,4 20,8.477 20,14 v 2 h -4 l 8,8 8,-8 h -4 z"
               inkscape:connector-curvature="0" /></g></g></g></g></g><g
     id="Layer_1" /></svg>