<?xml version="1.0" encoding="UTF-8" standalone="no"?>
<svg
   xmlns:dc="http://purl.org/dc/elements/1.1/"
   xmlns:cc="http://creativecommons.org/ns#"
   xmlns:rdf="http://www.w3.org/1999/02/22-rdf-syntax-ns#"
   xmlns:svg="http://www.w3.org/2000/svg"
   xmlns="http://www.w3.org/2000/svg"
   xmlns:sodipodi="http://sodipodi.sourceforge.net/DTD/sodipodi-0.dtd"
   xmlns:inkscape="http://www.inkscape.org/namespaces/inkscape"
   height="110px"
   style="enable-background:new 0 0 110 110;"
   version="1.0"
   viewBox="0 0 110 110"
   width="110px"
   xml:space="preserve"
   id="svg91"
   sodipodi:docname="keypairs.svg"
   inkscape:version="0.92.1 r15371"><metadata
     id="metadata97"><rdf:RDF><cc:Work
         rdf:about=""><dc:format>image/svg+xml</dc:format><dc:type
           rdf:resource="http://purl.org/dc/dcmitype/StillImage" /></cc:Work></rdf:RDF></metadata><defs
     id="defs95" /><sodipodi:namedview
     pagecolor="#ffffff"
     bordercolor="#666666"
     borderopacity="1"
     objecttolerance="10"
     gridtolerance="10"
     guidetolerance="10"
     inkscape:pageopacity="0"
     inkscape:pageshadow="2"
     inkscape:window-width="1920"
     inkscape:window-height="1015"
     id="namedview93"
     showgrid="false"
     inkscape:zoom="3.6863637"
     inkscape:cx="71.606325"
     inkscape:cy="53.509957"
     inkscape:window-x="0"
     inkscape:window-y="0"
     inkscape:window-maximized="1"
     inkscape:current-layer="g88" /><g
     id="Multicolor"><g
       id="g88"><g
         id="g70"
         transform="matrix(1.6616203,0,0,1.6616203,-36.08853,-36.669194)"><path
           inkscape:connector-curvature="0"
           d="m 87,55.005 c 0,17.67 -14.33,32 -32,32 0,0 -12,-4 -12,-16 0,-6 6,-11 12,-16 6,-5 12,-10 12,-16 0,-12 -12,-16 -12,-16 17.67,0 32,14.33 32,32 z"
           style="fill:#3e3e3f"
           id="path68" /></g><g
         id="g74"
         transform="matrix(1.6616203,0,0,1.6616203,-36.08853,-36.669194)"><path
           inkscape:connector-curvature="0"
           d="m 55,55.005 c 6,-5 12,-10 12,-16 0,-12 -12,-16 -12,-16 -17.67,0 -32,14.33 -32,32 0,9.725 4.347,18.432 11.196,24.302 L 43.033,70.47 C 43.378,64.707 49.18,59.854 55,55.005 Z"
           style="fill:#ffffff"
           id="path72" /></g><g
         id="g78"
         transform="matrix(2.1168445,0,0,2.1168445,-57.454318,-74.763209)"><path
           inkscape:connector-curvature="0"
           id="svg_8"
           d="m 71.890413,57.921085 h -3.220098 c -0.194816,0 -0.383192,0.07084 -0.531316,0.199646 l -11.112561,9.742408 c -0.574787,-0.120753 -1.463535,-0.281758 -2.041542,-0.281758 -4.438906,0 -8.050247,3.61134 -8.050247,8.050246 0,4.438906 3.611341,8.050247 8.050247,8.050247 4.438906,0 8.050246,-3.611341 8.050246,-8.050247 0,-1.31863 -0.251167,-2.202547 -0.536146,-2.93673 L 65.2393,71.764289 c 0.33328,-0.112704 0.553857,-0.429883 0.545806,-0.780874 l -0.06762,-3.055874 3.075195,-0.214136 c 0.412172,-0.02898 0.735792,-0.365481 0.748673,-0.777654 l 0.114313,-3.669302 2.408634,-0.534537 C 72.433,62.65141 72.695438,62.32296 72.695438,61.946208 V 58.72611 c 0,-0.444374 -0.360651,-0.805025 -0.805025,-0.805025 z M 52.569822,75.631627 c 0.966029,0 1.800035,0.568348 2.186447,1.387863 0.146514,0.312349 0.228627,0.66012 0.228627,1.027211 0,1.333121 -1.081954,2.415074 -2.415074,2.415074 -1.333121,0 -2.415074,-1.081953 -2.415074,-2.415074 0,-1.33312 1.081953,-2.415074 2.415074,-2.415074 z"
           style="fill:#00bfbf;fill-opacity:1;stroke-width:0.80502468" /></g><g
         id="g86"
         transform="matrix(1.6616203,0,0,1.6616203,-36.08853,-36.669194)"><path
           inkscape:connector-curvature="0"
           d="m 55,55.005 c -5.82,4.85 -11.622,9.702 -11.967,15.464 L 79.301,34.2 C 73.432,27.351 64.725,23.005 55,23.005 c 0,0 12,4 12,16 0,6 -6,11 -12,16 z"
           style="fill:#5b5c5f"
           id="path84" /></g></g></g><g
     transform="matrix(1.0770568,0,0,1.0770568,12.045188,-4.7623952)"
     id="g233"
     style="fill:#e0995e;fill-opacity:1"><g
       id="g231"
       style="fill:#e0995e;fill-opacity:1"
       transform="matrix(-1.3777935,0,0,-1.3777935,70.488582,82.873898)"><path
         inkscape:connector-curvature="0"
         d="m 47,16 h -4 c -0.242,0 -0.476,0.088 -0.66,0.248 L 28.536,28.35 C 27.822,28.2 26.718,28 26,28 c -5.514,0 -10,4.486 -10,10 0,5.514 4.486,10 10,10 5.514,0 10,-4.486 10,-10 0,-1.638 -0.312,-2.736 -0.666,-3.648 l 3.404,-1.156 c 0.414,-0.14 0.688,-0.534 0.678,-0.97 l -0.084,-3.796 3.82,-0.266 c 0.512,-0.036 0.914,-0.454 0.93,-0.966 l 0.142,-4.558 2.992,-0.664 C 47.674,21.876 48,21.468 48,21 v -4 c 0,-0.552 -0.448,-1 -1,-1 z M 23,38 c 1.2,0 2.236,0.706 2.716,1.724 C 25.898,40.112 26,40.544 26,41 c 0,1.656 -1.344,3 -3,3 -1.656,0 -3,-1.344 -3,-3 0,-1.656 1.344,-3 3,-3 z"
         id="path229"
         style="fill:#e0995e;fill-opacity:1" /></g></g></svg>