<?xml version="1.0" ?><svg enable-background="new 0 0 64 64" height="64px" version="1.1" viewBox="0 0 64 64" width="64px" xml:space="preserve" xmlns="http://www.w3.org/2000/svg" xmlns:xlink="http://www.w3.org/1999/xlink"><g id="Layer_1"><g><circle cx="32" cy="32" fill="#E0995E" r="32"/></g><g opacity="0.2"><g><path d="M47,18h-4c-0.242,0-0.476,0.088-0.66,0.248L28.536,30.35C27.822,30.2,26.718,30,26,30     c-5.514,0-10,4.486-10,10s4.486,10,10,10s10-4.486,10-10c0-1.638-0.312-2.736-0.666-3.648l3.404-1.156     c0.414-0.14,0.688-0.534,0.678-0.97l-0.084-3.796l3.82-0.266c0.512-0.036,0.914-0.454,0.93-0.966l0.142-4.558l2.992-0.664     C47.674,23.876,48,23.468,48,23v-4C48,18.448,47.552,18,47,18z M23,40c1.2,0,2.236,0.706,2.716,1.724     C25.898,42.112,26,42.544,26,43c0,1.656-1.344,3-3,3s-3-1.344-3-3S21.344,40,23,40z" fill="#231F20"/></g></g><g><g><path d="M47,16h-4c-0.242,0-0.476,0.088-0.66,0.248L28.536,28.35C27.822,28.2,26.718,28,26,28     c-5.514,0-10,4.486-10,10s4.486,10,10,10s10-4.486,10-10c0-1.638-0.312-2.736-0.666-3.648l3.404-1.156     c0.414-0.14,0.688-0.534,0.678-0.97l-0.084-3.796l3.82-0.266c0.512-0.036,0.914-0.454,0.93-0.966l0.142-4.558l2.992-0.664     C47.674,21.876,48,21.468,48,21v-4C48,16.448,47.552,16,47,16z M23,38c1.2,0,2.236,0.706,2.716,1.724     C25.898,40.112,26,40.544,26,41c0,1.656-1.344,3-3,3s-3-1.344-3-3S21.344,38,23,38z" fill="#FFFFFF"/></g></g></g><g id="Layer_2"/></svg>