<svg width="64" height="64" xmlns="http://www.w3.org/2000/svg">

 <g>
  <title>background</title>
  <rect fill="none" id="canvas_background" height="402" width="582" y="-1" x="-1"/>
 </g>
 <g>
  <title>Layer 1</title>
  <circle id="svg_2" r="32" fill="#00bfbf" cy="32" cx="32"/>
  <path opacity="0.2" id="svg_5" fill="#231F20" d="m47,18l-4,0c-0.242,0 -0.476,0.088 -0.66,0.248l-13.804,12.102c-0.714,-0.15 -1.818,-0.35 -2.536,-0.35c-5.514,0 -10,4.486 -10,10s4.486,10 10,10s10,-4.486 10,-10c0,-1.638 -0.312,-2.736 -0.666,-3.648l3.404,-1.156c0.414,-0.14 0.688,-0.534 0.678,-0.97l-0.084,-3.796l3.82,-0.266c0.512,-0.036 0.914,-0.454 0.93,-0.966l0.142,-4.558l2.992,-0.664c0.458,-0.1 0.784,-0.508 0.784,-0.976l0,-4c0,-0.552 -0.448,-1 -1,-1zm-24,22c1.2,0 2.236,0.706 2.716,1.724c0.182,0.388 0.284,0.82 0.284,1.276c0,1.656 -1.344,3 -3,3s-3,-1.344 -3,-3s1.344,-3 3,-3z"/>
  <path id="svg_8" fill="#FFFFFF" d="m47,16l-4,0c-0.242,0 -0.476,0.088 -0.66,0.248l-13.804,12.102c-0.714,-0.15 -1.818,-0.35 -2.536,-0.35c-5.514,0 -10,4.486 -10,10s4.486,10 10,10s10,-4.486 10,-10c0,-1.638 -0.312,-2.736 -0.666,-3.648l3.404,-1.156c0.414,-0.14 0.688,-0.534 0.678,-0.97l-0.084,-3.796l3.82,-0.266c0.512,-0.036 0.914,-0.454 0.93,-0.966l0.142,-4.558l2.992,-0.664c0.458,-0.1 0.784,-0.508 0.784,-0.976l0,-4c0,-0.552 -0.448,-1 -1,-1zm-24,22c1.2,0 2.236,0.706 2.716,1.724c0.182,0.388 0.284,0.82 0.284,1.276c0,1.656 -1.344,3 -3,3s-3,-1.344 -3,-3s1.344,-3 3,-3z"/>
 </g>
</svg>