<?xml version="1.0" ?><svg enable-background="new 0 0 512 512" id="Layer_1" version="1.1" viewBox="0 0 512 512" xml:space="preserve" xmlns="http://www.w3.org/2000/svg" xmlns:xlink="http://www.w3.org/1999/xlink"><g><g><linearGradient gradientUnits="userSpaceOnUse" id="SVGID_1_" x1="-0.0000027" x2="512" y1="256" y2="256"><stop offset="0" style="stop-color:#00AEEE"/><stop offset="1" style="stop-color:#0095DA"/></linearGradient><circle cx="256" cy="256" fill="url(#SVGID_1_)" r="256"/><linearGradient gradientUnits="userSpaceOnUse" id="SVGID_2_" x1="42.6666641" x2="469.3333435" y1="256.0005188" y2="256.0005188"><stop offset="0" style="stop-color:#0095DA"/><stop offset="1" style="stop-color:#00AEEE"/></linearGradient><path d="M256,469.3338623c-117.6315002,0-213.3333435-95.7018738-213.3333435-213.3333435    c0-117.6309204,95.7018356-213.333313,213.3333435-213.333313c117.6357117,0,213.3333435,95.7024002,213.3333435,213.333313    C469.3333435,373.6319885,373.6357117,469.3338623,256,469.3338623z" fill="url(#SVGID_2_)"/></g><path d="M264,144c-66.2741699,0-120,53.7263947-120,120c0,66.2741394,53.7258301,120,120,120s120-53.7258606,120-120   C384,197.7263947,330.2741089,144,264,144z M264,341.7077332l-63.3152313-63.3157349h33.5786743v-82.0991974h59.4725189v82.0991974   h33.5791931L264,341.7077332z" opacity="0.3"/><path d="M256,136c-66.2741699,0-120,53.7263947-120,120c0,66.2741394,53.7258301,120,120,120   s120-53.7258606,120-120C376,189.7263947,322.2741089,136,256,136z M256,333.7077332l-63.3152313-63.3157349h33.5786743   v-82.0991974h59.4725189v82.0991974h33.5791931L256,333.7077332z" fill="#FFFFFF"/></g></svg>