<?xml version="1.0" ?><svg height="48px" version="1.1" viewBox="0 0 48 48" width="48px" xmlns="http://www.w3.org/2000/svg" xmlns:xlink="http://www.w3.org/1999/xlink"><defs/><path d="M9.13783394,17.7287255 L9.1432766,17.7318678 C9.14284276,17.7312438 9.1412313,17.730687 9.13783394,17.7287255 Z M11.1456804,33.7356654 C11.1443648,33.7333866 11.1441016,33.7322716 11.1436081,33.7320761 L11.1456804,33.7356654 Z M26,40.0085383 L26,40.0014663 C25.9998544,40.0026552 26,40.0047754 26,40.0085383 Z M38.8584933,30.2643346 C38.8574547,30.2661337 38.8567378,30.2669953 38.8566174,30.2675839 L38.8584933,30.2643346 Z M38.8621661,30.2712745 L38.8567234,30.2681322 C38.8571572,30.2687562 38.8587687,30.269313 38.8621661,30.2712745 Z M36.8612561,14.2651493 L36.8564284,14.2679365 C36.8570153,14.2681117 36.857955,14.2670551 36.8612561,14.2651493 Z M22,8 L22,11.8591592 L19.5008596,12.8707855 C18.4672508,13.2891797 17.4970861,13.8511143 16.6176341,14.5386157 L14.4913768,16.2007927 L11.1435935,14.2679492 L9.14359354,17.7320508 L12.4853807,19.6614325 L12.1149007,22.3291174 C12.0385971,22.8785511 12,23.4362501 12,24 C12,24.5637499 12.0385971,25.1214489 12.1149007,25.6708826 L12.4853807,28.3385675 L9.14359354,30.2679492 L11.1435935,33.7320508 L14.4913768,31.7992073 L16.6176341,33.4613843 C17.4970861,34.1488857 18.4672508,34.7108203 19.5008596,35.1292145 L22,36.1408408 L22,40 L26,40 L26,36.1408408 L28.4991404,35.1292145 C29.5327492,34.7108203 30.5029139,34.1488857 31.3823659,33.4613843 L33.5086232,31.7992073 L36.8564065,33.7320508 L38.8564065,30.2679492 L35.5146193,28.3385675 L35.8850993,25.6708826 C35.9614029,25.1214489 36,24.5637499 36,24 C36,23.4362501 35.9614029,22.8785511 35.8850993,22.3291174 L35.5146193,19.6614325 L38.8564065,17.7320508 L36.8564065,14.2679492 L33.5086232,16.2007927 L31.3823659,14.5386157 C30.5029139,13.8511143 29.5327492,13.2891797 28.4991404,12.8707855 L26,11.8591592 L26,8 L22,8 Z M18,7.99146174 C18,5.78703829 19.7965212,4 21.9958262,4 L26.0041738,4 C28.2110077,4 30,5.79128888 30,7.99146174 L30,9.16303409 C31.3896755,9.72556044 32.6823308,10.4776601 33.8458977,11.3872651 L34.8612561,10.8010477 C36.7717482,9.69802451 39.2187687,10.3596806 40.3184212,12.2643346 L42.322595,15.7356654 C43.4260119,17.6468396 42.7684728,20.0922204 40.8621661,21.1928271 L39.8470748,21.7788903 C39.9478894,22.5048182 40,23.2463235 40,24 C40,24.7536765 39.9478894,25.4951818 39.8470748,26.2211097 L40.8621661,26.8071729 C42.7721556,27.9099059 43.4222475,30.3596806 42.322595,32.2643346 L40.3184212,35.7356654 C39.2150042,37.6468396 36.7680644,38.2998486 34.8612561,37.1989523 L33.8458977,36.6127349 C32.6823308,37.5223399 31.3896755,38.2744396 30,38.8369659 L30,40.0085383 C30,42.2129617 28.2034788,44 26.0041738,44 L21.9958262,44 C19.7889923,44 18,42.2087111 18,40.0085383 L18,38.8369659 C16.6103245,38.2744396 15.3176692,37.5223399 14.1541023,36.6127349 L13.1387439,37.1989523 C11.2282518,38.3019755 8.7812313,37.6403194 7.6815788,35.7356654 L5.67740505,32.2643346 C4.5739881,30.3531604 5.23152724,27.9077796 7.13783394,26.8071729 L8.1529252,26.2211097 C8.05211055,25.4951818 8,24.7536765 8,24 C8,23.2463235 8.05211055,22.5048182 8.1529252,21.7788903 L7.13783394,21.1928271 C5.22784439,20.0900941 4.57775255,17.6403194 5.67740505,15.7356654 L7.6815788,12.2643346 C8.78499575,10.3531604 11.2319356,9.70015137 13.1387439,10.8010477 L14.1541023,11.3872651 C15.3176692,10.4776601 16.6103245,9.72556044 18,9.16303409 L18,7.99146174 Z" fill="#000000" fill-rule="nonzero" id="Rectangle-226"/><path d="M24,28 C26.209139,28 28,26.209139 28,24 C28,21.790861 26.209139,20 24,20 C21.790861,20 20,21.790861 20,24 C20,26.209139 21.790861,28 24,28 Z M24,32 C19.581722,32 16,28.418278 16,24 C16,19.581722 19.581722,16 24,16 C28.418278,16 32,19.581722 32,24 C32,28.418278 28.418278,32 24,32 Z" fill="#000000" fill-rule="nonzero" id="Oval-40"/></svg>