<?xml version="1.0" ?><!DOCTYPE svg  PUBLIC '-//W3C//DTD SVG 1.1//EN'  'http://www.w3.org/Graphics/SVG/1.1/DTD/svg11.dtd'><svg style="enable-background:new 0 0 499.997 499.992;" version="1.1" viewBox="0 0 499.997 499.992" xml:space="preserve" xmlns="http://www.w3.org/2000/svg" xmlns:xlink="http://www.w3.org/1999/xlink"><g id="gsm-sim-card"><g><path d="M249.996,0C111.925,0,0,111.92,0,249.996c0,138.066,111.925,249.996,249.996,249.996    c138.066,0,250.001-111.93,250.001-249.996C499.997,111.92,388.062,0,249.996,0z" style="fill:#7DBEBD;"/><g id="_x32_8"><path d="M356.183,215.981l-96.771-77.362c-3.08-2.367-8.77-4.327-12.651-4.327h-90.891     c-9.687,0-17.633,7.946-17.633,17.657v196.083c0,9.712,7.946,17.657,17.633,17.657h188.254c9.697,0,17.643-7.946,17.643-17.657     V227.352C361.766,223.481,359.243,218.359,356.183,215.981z" style="fill:#FFFFFF;"/><g><path d="M241.163,158.896c0-1.737,1.441-3.182,3.196-3.182h17.313c1.751,0,3.197,1.445,3.197,3.182v41.02      c0,1.756-1.445,3.201-3.197,3.201h-17.313c-1.756,0-3.196-1.445-3.196-3.201V158.896z" style="fill:#DFC97A;"/><path d="M176.18,199.915c0,1.756-1.436,3.201-3.187,3.201H155.67c-1.741,0-3.196-1.445-3.196-3.201      v-41.02c0-1.737,1.455-3.182,3.196-3.182h17.323c1.751,0,3.187,1.445,3.187,3.182V199.915z" style="fill:#DFC97A;"/><path d="M205.736,199.915c0,1.756-1.421,3.201-3.187,3.201h-17.308c-1.751,0-3.197-1.445-3.197-3.201      v-41.02c0-1.737,1.445-3.182,3.197-3.182h17.308c1.766,0,3.187,1.445,3.187,3.182V199.915z" style="fill:#DFC97A;"/><path d="M211.606,199.915v-41.02c0-1.737,1.436-3.182,3.196-3.182h17.313      c1.751,0,3.187,1.445,3.187,3.182v41.02c0,1.756-1.436,3.201-3.187,3.201h-17.313      C213.042,203.117,211.606,201.671,211.606,199.915z" style="fill:#DFC97A;"/></g><path d="M331.472,336.187c0,3.89-3.177,7.063-7.053,7.063h-88.252c-3.871,0-7.058-3.172-7.058-7.063     v-88.229c0-3.89,3.187-7.072,7.058-7.072h88.252c3.876,0,7.053,3.182,7.053,7.072V336.187z" style="fill:#EFEFF0;"/><path d="M331.472,295.604v-7.072h-15.169v-21.916h-44.536v-25.729h-7.063v13.825h-35.596v7.072h35.596     v31.094h-19.122v50.362h7.058l-0.009-43.319h12.074v19.2h46.7v24.128h7.058v-24.128h13.01v-7.063H300.15v-16.464l9.11,0.009l0,0     H331.472z M293.087,288.532v23.527h-21.32v-16.444v-3.532v-18.395h37.493v14.844H293.087z" style="fill:#DBDFE4;"/></g></g></g><g id="Layer_1"/></svg>